<svg width="220" height="24" viewBox="0 0 220 24" fill="none" xmlns="http://www.w3.org/2000/svg">
<rect width="75" height="24" fill="#FFB400"/>
<path d="M6.76847 17L7.86577 13.9105H12.2763L13.3736 17H14.7585L10.7528 6.09091H9.3892L5.38352 17H6.76847ZM8.28125 12.7386L10.0284 7.81676H10.1136L11.8608 12.7386H8.28125ZM19.3768 17.1705C20.9535 17.1705 21.4862 16.1903 21.7631 15.7429H21.9123V17H23.1268V6.09091H21.8697V10.1179H21.7631C21.4862 9.69176 20.9961 8.71165 19.3981 8.71165C17.3313 8.71165 15.9038 10.3523 15.9038 12.9304C15.9038 15.5298 17.3313 17.1705 19.3768 17.1705ZM19.5472 16.0412C17.9705 16.0412 17.1609 14.6562 17.1609 12.9091C17.1609 11.1832 17.9492 9.84091 19.5472 9.84091C21.0813 9.84091 21.891 11.0767 21.891 12.9091C21.891 14.7628 21.06 16.0412 19.5472 16.0412ZM28.6932 17.1705C30.2699 17.1705 30.8026 16.1903 31.0795 15.7429H31.2287V17H32.4432V6.09091H31.1861V10.1179H31.0795C30.8026 9.69176 30.3125 8.71165 28.7145 8.71165C26.6477 8.71165 25.2202 10.3523 25.2202 12.9304C25.2202 15.5298 26.6477 17.1705 28.6932 17.1705ZM28.8636 16.0412C27.2869 16.0412 26.4773 14.6562 26.4773 12.9091C26.4773 11.1832 27.2656 9.84091 28.8636 9.84091C30.3977 9.84091 31.2074 11.0767 31.2074 12.9091C31.2074 14.7628 30.3764 16.0412 28.8636 16.0412ZM34.9201 17H36.1772V11.8224C36.1772 10.7145 37.0508 9.90483 38.244 9.90483C38.5795 9.90483 38.9258 9.96875 39.011 9.99006V8.71165C38.8672 8.70099 38.5369 8.69034 38.3505 8.69034C37.3704 8.69034 36.5181 9.24432 36.2198 10.054H36.1346V8.81818H34.9201V17ZM43.9316 17.1705C45.5935 17.1705 46.808 16.3395 47.1915 15.1037L45.977 14.7628C45.6574 15.6151 44.917 16.0412 43.9316 16.0412C42.4561 16.0412 41.4387 15.0877 41.3801 13.3352H47.3193V12.8026C47.3193 9.75568 45.5083 8.71165 43.8037 8.71165C41.5878 8.71165 40.1176 10.4588 40.1176 12.973C40.1176 15.4872 41.5665 17.1705 43.9316 17.1705ZM41.3801 12.2486C41.4653 10.9755 42.3655 9.84091 43.8037 9.84091C45.1673 9.84091 46.0409 10.8636 46.0409 12.2486H41.3801ZM55.0271 10.6506C54.6329 9.48935 53.7487 8.71165 52.1294 8.71165C50.4035 8.71165 49.1251 9.69176 49.1251 11.0767C49.1251 12.206 49.7963 12.9624 51.2984 13.3139L52.662 13.6335C53.4877 13.8253 53.8765 14.2195 53.8765 14.7841C53.8765 15.4872 53.1308 16.0625 51.9589 16.0625C50.9308 16.0625 50.2863 15.6204 50.0626 14.7415L48.8694 15.0398C49.1624 16.43 50.3076 17.1705 51.9802 17.1705C53.8818 17.1705 55.1762 16.1317 55.1762 14.7202C55.1762 13.5803 54.4624 12.8612 53.0029 12.5043L51.7884 12.206C50.819 11.9663 50.3822 11.6413 50.3822 11.0128C50.3822 10.3097 51.1279 9.7983 52.1294 9.7983C53.2267 9.7983 53.6794 10.4055 53.8978 10.9702L55.0271 10.6506ZM62.864 10.6506C62.4698 9.48935 61.5856 8.71165 59.9663 8.71165C58.2404 8.71165 56.962 9.69176 56.962 11.0767C56.962 12.206 57.6332 12.9624 59.1353 13.3139L60.4989 13.6335C61.3246 13.8253 61.7134 14.2195 61.7134 14.7841C61.7134 15.4872 60.9677 16.0625 59.7958 16.0625C58.7678 16.0625 58.1232 15.6204 57.8995 14.7415L56.7063 15.0398C56.9993 16.43 58.1445 17.1705 59.8171 17.1705C61.7188 17.1705 63.0131 16.1317 63.0131 14.7202C63.0131 13.5803 62.2994 12.8612 60.8398 12.5043L59.6254 12.206C58.6559 11.9663 58.2191 11.6413 58.2191 11.0128C58.2191 10.3097 58.9648 9.7983 59.9663 9.7983C61.0636 9.7983 61.5163 10.4055 61.7347 10.9702L62.864 10.6506ZM65.8216 17.0852C66.349 17.0852 66.7805 16.6538 66.7805 16.1264C66.7805 15.5991 66.349 15.1676 65.8216 15.1676C65.2943 15.1676 64.8628 15.5991 64.8628 16.1264C64.8628 16.6538 65.2943 17.0852 65.8216 17.0852ZM65.8216 11.0128C66.349 11.0128 66.7805 10.5813 66.7805 10.054C66.7805 9.52663 66.349 9.09517 65.8216 9.09517C65.2943 9.09517 64.8628 9.52663 64.8628 10.054C64.8628 10.5813 65.2943 11.0128 65.8216 11.0128Z" fill="#2B2B2B"/>
<path d="M92.8955 17C96.2194 17 98.0944 14.9332 98.0944 11.5241C98.0944 8.13636 96.2194 6.09091 93.0447 6.09091H89.529V17H92.8955ZM90.8501 15.8281V7.26278H92.9594C95.5162 7.26278 96.816 8.8821 96.816 11.5241C96.816 14.1875 95.5162 15.8281 92.8103 15.8281H90.8501ZM101.397 12.0781C101.397 10.6506 102.308 9.84091 103.549 9.84091C104.731 9.84091 105.445 10.5866 105.445 11.8864V17H106.702V11.8011C106.702 9.69709 105.584 8.71165 103.911 8.71165C102.622 8.71165 101.887 9.24964 101.503 10.0966H101.397V6.09091H100.14V17H101.397V12.0781ZM111.41 17.1918C112.837 17.1918 113.583 16.4247 113.839 15.892H113.903V17H115.16V11.6094C115.16 9.00994 113.178 8.71165 112.134 8.71165C110.898 8.71165 109.492 9.13778 108.853 10.6293L110.046 11.0554C110.323 10.4588 110.978 9.8196 112.177 9.8196C113.333 9.8196 113.903 10.4322 113.903 11.4815V11.5241C113.903 12.1314 113.285 12.0781 111.793 12.2699C110.275 12.467 108.619 12.8026 108.619 14.6776C108.619 16.2756 109.854 17.1918 111.41 17.1918ZM111.602 16.0625C110.6 16.0625 109.876 15.6151 109.876 14.7415C109.876 13.7827 110.749 13.4844 111.729 13.3565C112.262 13.2926 113.69 13.1435 113.903 12.8878V14.0384C113.903 15.0611 113.093 16.0625 111.602 16.0625ZM117.454 17H118.711V13.9371L119.59 13.1222L122.653 17H124.251L120.538 12.3125L123.995 8.81818H122.44L118.861 12.4616H118.711V6.09091H117.454V17ZM128.021 17.1918C129.449 17.1918 130.194 16.4247 130.45 15.892H130.514V17H131.771V11.6094C131.771 9.00994 129.79 8.71165 128.746 8.71165C127.51 8.71165 126.104 9.13778 125.464 10.6293L126.657 11.0554C126.934 10.4588 127.59 9.8196 128.788 9.8196C129.944 9.8196 130.514 10.4322 130.514 11.4815V11.5241C130.514 12.1314 129.896 12.0781 128.405 12.2699C126.887 12.467 125.23 12.8026 125.23 14.6776C125.23 16.2756 126.466 17.1918 128.021 17.1918ZM128.213 16.0625C127.211 16.0625 126.487 15.6151 126.487 14.7415C126.487 13.7827 127.361 13.4844 128.341 13.3565C128.873 13.2926 130.301 13.1435 130.514 12.8878V14.0384C130.514 15.0611 129.704 16.0625 128.213 16.0625ZM135.941 15.5085H134.577L134.513 16.1051C134.359 17.5487 134.055 18.9869 133.916 19.6634H134.875C135.131 18.9389 135.674 17.2983 135.855 16.0838L135.941 15.5085ZM138.44 17H142.382C144.96 17 146.025 15.7429 146.025 14.1023C146.025 12.3764 144.832 11.4389 143.831 11.375V11.2685C144.768 11.0128 145.599 10.3949 145.599 8.98864C145.599 7.39062 144.534 6.09091 142.254 6.09091H138.44V17ZM139.761 15.8281V12.0355H142.446C143.873 12.0355 144.768 12.9943 144.768 14.1023C144.768 15.0611 144.108 15.8281 142.382 15.8281H139.761ZM139.761 10.8849V7.26278H142.254C143.703 7.26278 144.342 8.02983 144.342 8.98864C144.342 10.1392 143.405 10.8849 142.211 10.8849H139.761ZM150.433 17.1918C151.861 17.1918 152.607 16.4247 152.862 15.892H152.926V17H154.183V11.6094C154.183 9.00994 152.202 8.71165 151.158 8.71165C149.922 8.71165 148.516 9.13778 147.876 10.6293L149.07 11.0554C149.347 10.4588 150.002 9.8196 151.2 9.8196C152.356 9.8196 152.926 10.4322 152.926 11.4815V11.5241C152.926 12.1314 152.308 12.0781 150.817 12.2699C149.299 12.467 147.642 12.8026 147.642 14.6776C147.642 16.2756 148.878 17.1918 150.433 17.1918ZM150.625 16.0625C149.624 16.0625 148.899 15.6151 148.899 14.7415C148.899 13.7827 149.773 13.4844 150.753 13.3565C151.286 13.2926 152.713 13.1435 152.926 12.8878V14.0384C152.926 15.0611 152.116 16.0625 150.625 16.0625ZM157.735 12.0781C157.735 10.6506 158.619 9.84091 159.823 9.84091C160.989 9.84091 161.698 10.6026 161.698 11.8864V17H162.955V11.8011C162.955 9.71307 161.842 8.71165 160.185 8.71165C158.949 8.71165 158.182 9.26562 157.799 10.0966H157.692V8.81818H156.478V17H157.735V12.0781ZM168.555 20.2386C170.515 20.2386 172.092 19.3438 172.092 17.2344V8.81818H170.877V10.1179H170.749C170.472 9.69176 169.961 8.71165 168.363 8.71165C166.296 8.71165 164.869 10.3523 164.869 12.8665C164.869 15.4233 166.36 16.8722 168.342 16.8722C169.94 16.8722 170.451 15.9347 170.728 15.4872H170.835V17.1491C170.835 18.5128 169.876 19.1307 168.555 19.1307C167.069 19.1307 166.547 18.3477 166.211 17.8949L165.21 18.598C165.721 19.4556 166.728 20.2386 168.555 20.2386ZM168.512 15.7429C166.935 15.7429 166.126 14.5497 166.126 12.8452C166.126 11.1832 166.914 9.84091 168.512 9.84091C170.046 9.84091 170.856 11.0767 170.856 12.8452C170.856 14.6562 170.025 15.7429 168.512 15.7429ZM175.65 6.09091H174.393V17H175.65V6.09091ZM180.36 17.1918C181.788 17.1918 182.533 16.4247 182.789 15.892H182.853V17H184.11V11.6094C184.11 9.00994 182.128 8.71165 181.084 8.71165C179.849 8.71165 178.442 9.13778 177.803 10.6293L178.996 11.0554C179.273 10.4588 179.929 9.8196 181.127 9.8196C182.283 9.8196 182.853 10.4322 182.853 11.4815V11.5241C182.853 12.1314 182.235 12.0781 180.744 12.2699C179.225 12.467 177.569 12.8026 177.569 14.6776C177.569 16.2756 178.805 17.1918 180.36 17.1918ZM180.552 16.0625C179.55 16.0625 178.826 15.6151 178.826 14.7415C178.826 13.7827 179.699 13.4844 180.68 13.3565C181.212 13.2926 182.64 13.1435 182.853 12.8878V14.0384C182.853 15.0611 182.043 16.0625 180.552 16.0625ZM189.494 17.1705C191.071 17.1705 191.603 16.1903 191.88 15.7429H192.029V17H193.244V6.09091H191.987V10.1179H191.88C191.603 9.69176 191.113 8.71165 189.515 8.71165C187.449 8.71165 186.021 10.3523 186.021 12.9304C186.021 15.5298 187.449 17.1705 189.494 17.1705ZM189.664 16.0412C188.088 16.0412 187.278 14.6562 187.278 12.9091C187.278 11.1832 188.066 9.84091 189.664 9.84091C191.199 9.84091 192.008 11.0767 192.008 12.9091C192.008 14.7628 191.177 16.0412 189.664 16.0412ZM199.151 17.1705C200.813 17.1705 202.028 16.3395 202.411 15.1037L201.197 14.7628C200.877 15.6151 200.137 16.0412 199.151 16.0412C197.676 16.0412 196.658 15.0877 196.6 13.3352H202.539V12.8026C202.539 9.75568 200.728 8.71165 199.023 8.71165C196.808 8.71165 195.337 10.4588 195.337 12.973C195.337 15.4872 196.786 17.1705 199.151 17.1705ZM196.6 12.2486C196.685 10.9755 197.585 9.84091 199.023 9.84091C200.387 9.84091 201.261 10.8636 201.261 12.2486H196.6ZM210.247 10.6506C209.853 9.48935 208.968 8.71165 207.349 8.71165C205.623 8.71165 204.345 9.69176 204.345 11.0767C204.345 12.206 205.016 12.9624 206.518 13.3139L207.882 13.6335C208.707 13.8253 209.096 14.2195 209.096 14.7841C209.096 15.4872 208.35 16.0625 207.179 16.0625C206.151 16.0625 205.506 15.6204 205.282 14.7415L204.089 15.0398C204.382 16.43 205.527 17.1705 207.2 17.1705C209.102 17.1705 210.396 16.1317 210.396 14.7202C210.396 13.5803 209.682 12.8612 208.223 12.5043L207.008 12.206C206.039 11.9663 205.602 11.6413 205.602 11.0128C205.602 10.3097 206.348 9.7983 207.349 9.7983C208.446 9.7983 208.899 10.4055 209.118 10.9702L210.247 10.6506ZM213.545 12.0781C213.545 10.6506 214.456 9.84091 215.697 9.84091C216.88 9.84091 217.594 10.5866 217.594 11.8864V17H218.851V11.8011C218.851 9.69709 217.732 8.71165 216.06 8.71165C214.771 8.71165 214.035 9.24964 213.652 10.0966H213.545V6.09091H212.288V17H213.545V12.0781Z" fill="#2B2B2B"/>
</svg>
