<svg width="221" height="25" viewBox="0 0 221 25" fill="none" xmlns="http://www.w3.org/2000/svg">
<rect width="46.2091" height="24" fill="#FFB400"/>
<path d="M6.79142 18L7.88872 14.9105H12.2992L13.3965 18H14.7815L10.7758 7.09091H9.41215L5.40647 18H6.79142ZM8.3042 13.7386L10.0514 8.81676H10.1366L11.8837 13.7386H8.3042ZM19.6128 21.2386C21.573 21.2386 23.1497 20.3438 23.1497 18.2344V9.81818H21.9352V11.1179H21.8074C21.5304 10.6918 21.019 9.71165 19.421 9.71165C17.3543 9.71165 15.9267 11.3523 15.9267 13.8665C15.9267 16.4233 17.4182 17.8722 19.3997 17.8722C20.9977 17.8722 21.5091 16.9347 21.7861 16.4872H21.8926V18.1491C21.8926 19.5128 20.9338 20.1307 19.6128 20.1307C18.1266 20.1307 17.6046 19.3477 17.269 18.8949L16.2676 19.598C16.779 20.4556 17.7857 21.2386 19.6128 21.2386ZM19.5702 16.7429C17.9935 16.7429 17.1838 15.5497 17.1838 13.8452C17.1838 12.1832 17.9722 10.8409 19.5702 10.8409C21.1043 10.8409 21.9139 12.0767 21.9139 13.8452C21.9139 15.6562 21.083 16.7429 19.5702 16.7429ZM28.8813 18.1705C30.5432 18.1705 31.7577 17.3395 32.1412 16.1037L30.9267 15.7628C30.6071 16.6151 29.8667 17.0412 28.8813 17.0412C27.4058 17.0412 26.3884 16.0877 26.3298 14.3352H32.269V13.8026C32.269 10.7557 30.458 9.71165 28.7534 9.71165C26.5375 9.71165 25.0673 11.4588 25.0673 13.973C25.0673 16.4872 26.5162 18.1705 28.8813 18.1705ZM26.3298 13.2486C26.415 11.9755 27.3152 10.8409 28.7534 10.8409C30.1171 10.8409 30.9906 11.8636 30.9906 13.2486H26.3298ZM35.0975 18.0852C35.6249 18.0852 36.0563 17.6538 36.0563 17.1264C36.0563 16.5991 35.6249 16.1676 35.0975 16.1676C34.5702 16.1676 34.1387 16.5991 34.1387 17.1264C34.1387 17.6538 34.5702 18.0852 35.0975 18.0852ZM35.0975 12.0128C35.6249 12.0128 36.0563 11.5813 36.0563 11.054C36.0563 10.5266 35.6249 10.0952 35.0975 10.0952C34.5702 10.0952 34.1387 10.5266 34.1387 11.054C34.1387 11.5813 34.5702 12.0128 35.0975 12.0128Z" fill="#2B2B2B"/>
<path d="M203.423 17H210.305V15.8281H205.234V15.7429L207.685 13.1222C209.56 11.114 210.113 10.1765 210.113 8.96733C210.113 7.28409 208.75 5.94176 206.832 5.94176C204.92 5.94176 203.466 7.24148 203.466 9.15909H204.723C204.723 7.91797 205.527 7.09233 206.79 7.09233C207.972 7.09233 208.878 7.81676 208.878 8.96733C208.878 9.97408 208.286 10.7198 207.024 12.0994L203.423 16.0412V17ZM212.249 14.7628H217.384V17H218.642V14.7628H220.133V13.5909H218.642V6.09091H217.044L212.249 13.6761V14.7628ZM217.384 13.5909H213.677V13.5057L217.299 7.77415H217.384V13.5909Z" fill="#2B2B2B"/>
</svg>
