<svg width="220" height="24" viewBox="0 0 220 24" fill="none" xmlns="http://www.w3.org/2000/svg">
<rect width="85" height="24" fill="#FFB400"/>
<path d="M6.32102 17H7.64205V12.1207H12.3722V10.9489H7.64205V7.26278H12.8622V6.09091H6.32102V17ZM14.9543 17H16.2114V11.8224C16.2114 10.7145 17.085 9.90483 18.2781 9.90483C18.6137 9.90483 18.96 9.96875 19.0452 9.99006V8.71165C18.9014 8.70099 18.5711 8.69034 18.3847 8.69034C17.4046 8.69034 16.5523 9.24432 16.254 10.054H16.1688V8.81818H14.9543V17ZM23.9657 17.1705C25.6277 17.1705 26.8422 16.3395 27.2257 15.1037L26.0112 14.7628C25.6916 15.6151 24.9512 16.0412 23.9657 16.0412C22.4902 16.0412 21.4728 15.0877 21.4142 13.3352H27.3535V12.8026C27.3535 9.75568 25.5424 8.71165 23.8379 8.71165C21.622 8.71165 20.1518 10.4588 20.1518 12.973C20.1518 15.4872 21.6007 17.1705 23.9657 17.1705ZM21.4142 12.2486C21.4995 10.9755 22.3997 9.84091 23.8379 9.84091C25.2015 9.84091 26.0751 10.8636 26.0751 12.2486H21.4142ZM32.6962 17.1705C34.3581 17.1705 35.5726 16.3395 35.9561 15.1037L34.7417 14.7628C34.4221 15.6151 33.6816 16.0412 32.6962 16.0412C31.2207 16.0412 30.2033 15.0877 30.1447 13.3352H36.084V12.8026C36.084 9.75568 34.2729 8.71165 32.5684 8.71165C30.3525 8.71165 28.8823 10.4588 28.8823 12.973C28.8823 15.4872 30.3311 17.1705 32.6962 17.1705ZM30.1447 12.2486C30.2299 10.9755 31.1301 9.84091 32.5684 9.84091C33.932 9.84091 34.8056 10.8636 34.8056 12.2486H30.1447ZM39.2534 6.09091H37.9963V17H39.2534V6.09091ZM43.9635 17.1918C45.3911 17.1918 46.1368 16.4247 46.3925 15.892H46.4564V17H47.7135V11.6094C47.7135 9.00994 45.732 8.71165 44.6879 8.71165C43.4521 8.71165 42.0459 9.13778 41.4067 10.6293L42.5999 11.0554C42.8769 10.4588 43.532 9.8196 44.7306 9.8196C45.8865 9.8196 46.4564 10.4322 46.4564 11.4815V11.5241C46.4564 12.1314 45.8385 12.0781 44.347 12.2699C42.8289 12.467 41.1723 12.8026 41.1723 14.6776C41.1723 16.2756 42.4081 17.1918 43.9635 17.1918ZM44.1553 16.0625C43.1539 16.0625 42.4294 15.6151 42.4294 14.7415C42.4294 13.7827 43.303 13.4844 44.2831 13.3565C44.8158 13.2926 46.2433 13.1435 46.4564 12.8878V14.0384C46.4564 15.0611 45.6468 16.0625 44.1553 16.0625ZM51.2651 12.0781C51.2651 10.6506 52.1493 9.84091 53.3532 9.84091C54.5197 9.84091 55.2282 10.6026 55.2282 11.8864V17H56.4853V11.8011C56.4853 9.71307 55.372 8.71165 53.7154 8.71165C52.4796 8.71165 51.7125 9.26562 51.329 10.0966H51.2225V8.81818H50.008V17H51.2651V12.0781ZM62.1063 17.1705C63.9173 17.1705 65.1105 16.0625 65.3236 14.6136H64.0665C63.8321 15.5085 63.0864 16.0412 62.1063 16.0412C60.6148 16.0412 59.656 14.8054 59.656 12.9091C59.656 11.0554 60.6361 9.84091 62.1063 9.84091C63.2142 9.84091 63.8747 10.5227 64.0665 11.2685H65.3236C65.1105 9.73438 63.8108 8.71165 62.085 8.71165C59.8691 8.71165 58.3989 10.4588 58.3989 12.9517C58.3989 15.402 59.8051 17.1705 62.1063 17.1705ZM70.5917 17.1705C72.2536 17.1705 73.4681 16.3395 73.8517 15.1037L72.6372 14.7628C72.3176 15.6151 71.5771 16.0412 70.5917 16.0412C69.1162 16.0412 68.0988 15.0877 68.0402 13.3352H73.9795V12.8026C73.9795 9.75568 72.1684 8.71165 70.4639 8.71165C68.248 8.71165 66.7778 10.4588 66.7778 12.973C66.7778 15.4872 68.2267 17.1705 70.5917 17.1705ZM68.0402 12.2486C68.1254 10.9755 69.0257 9.84091 70.4639 9.84091C71.8275 9.84091 72.7011 10.8636 72.7011 12.2486H68.0402ZM76.808 17.0852C77.3353 17.0852 77.7668 16.6538 77.7668 16.1264C77.7668 15.5991 77.3353 15.1676 76.808 15.1676C76.2806 15.1676 75.8492 15.5991 75.8492 16.1264C75.8492 16.6538 76.2806 17.0852 76.808 17.0852ZM76.808 11.0128C77.3353 11.0128 77.7668 10.5813 77.7668 10.054C77.7668 9.52663 77.3353 9.09517 76.808 9.09517C76.2806 9.09517 75.8492 9.52663 75.8492 10.054C75.8492 10.5813 76.2806 11.0128 76.808 11.0128Z" fill="#2B2B2B"/>
<path d="M157.652 17L158.75 13.9105H163.16L164.257 17H165.642L161.637 6.09091H160.273L156.267 17H157.652ZM159.165 12.7386L160.912 7.81676H160.997L162.745 12.7386H159.165ZM173.861 8.81818H172.498L170.239 15.3381H170.154L167.896 8.81818H166.532L169.557 17H170.836L173.861 8.81818ZM177.928 17.1918C179.356 17.1918 180.102 16.4247 180.357 15.892H180.421V17H181.678V11.6094C181.678 9.00994 179.697 8.71165 178.653 8.71165C177.417 8.71165 176.011 9.13778 175.372 10.6293L176.565 11.0554C176.842 10.4588 177.497 9.8196 178.695 9.8196C179.851 9.8196 180.421 10.4322 180.421 11.4815V11.5241C180.421 12.1314 179.803 12.0781 178.312 12.2699C176.794 12.467 175.137 12.8026 175.137 14.6776C175.137 16.2756 176.373 17.1918 177.928 17.1918ZM178.12 16.0625C177.119 16.0625 176.394 15.6151 176.394 14.7415C176.394 13.7827 177.268 13.4844 178.248 13.3565C178.781 13.2926 180.208 13.1435 180.421 12.8878V14.0384C180.421 15.0611 179.612 16.0625 178.12 16.0625ZM183.973 17H185.23V8.81818H183.973V17ZM184.612 7.45455C185.102 7.45455 185.507 7.07102 185.507 6.60227C185.507 6.13352 185.102 5.75 184.612 5.75C184.122 5.75 183.717 6.13352 183.717 6.60227C183.717 7.07102 184.122 7.45455 184.612 7.45455ZM188.79 6.09091H187.532V17H188.79V6.09091ZM193.5 17.1918C194.927 17.1918 195.673 16.4247 195.929 15.892H195.993V17H197.25V11.6094C197.25 9.00994 195.268 8.71165 194.224 8.71165C192.988 8.71165 191.582 9.13778 190.943 10.6293L192.136 11.0554C192.413 10.4588 193.068 9.8196 194.267 9.8196C195.423 9.8196 195.993 10.4322 195.993 11.4815V11.5241C195.993 12.1314 195.375 12.0781 193.883 12.2699C192.365 12.467 190.708 12.8026 190.708 14.6776C190.708 16.2756 191.944 17.1918 193.5 17.1918ZM193.691 16.0625C192.69 16.0625 191.966 15.6151 191.966 14.7415C191.966 13.7827 192.839 13.4844 193.819 13.3565C194.352 13.2926 195.779 13.1435 195.993 12.8878V14.0384C195.993 15.0611 195.183 16.0625 193.691 16.0625ZM199.715 17H200.929V15.7429H201.078C201.355 16.1903 201.888 17.1705 203.465 17.1705C205.51 17.1705 206.938 15.5298 206.938 12.9304C206.938 10.3523 205.51 8.71165 203.443 8.71165C201.845 8.71165 201.355 9.69176 201.078 10.1179H200.972V6.09091H199.715V17ZM200.95 12.9091C200.95 11.0767 201.76 9.84091 203.294 9.84091C204.892 9.84091 205.68 11.1832 205.68 12.9091C205.68 14.6562 204.871 16.0412 203.294 16.0412C201.781 16.0412 200.95 14.7628 200.95 12.9091ZM210.118 6.09091H208.861V17H210.118V6.09091ZM215.85 17.1705C217.512 17.1705 218.727 16.3395 219.11 15.1037L217.896 14.7628C217.576 15.6151 216.836 16.0412 215.85 16.0412C214.375 16.0412 213.358 15.0877 213.299 13.3352H219.238V12.8026C219.238 9.75568 217.427 8.71165 215.723 8.71165C213.507 8.71165 212.037 10.4588 212.037 12.973C212.037 15.4872 213.485 17.1705 215.85 17.1705ZM213.299 12.2486C213.384 10.9755 214.284 9.84091 215.723 9.84091C217.086 9.84091 217.96 10.8636 217.96 12.2486H213.299Z" fill="#7EB942"/>
</svg>
