<svg width="220" height="24" viewBox="0 0 220 24" fill="none" xmlns="http://www.w3.org/2000/svg">
<rect width="89" height="24" fill="#FFB400"/>
<path d="M6.32102 17H7.64205V12.7386H10.0284C10.1243 12.7386 10.2148 12.7386 10.3054 12.7333L12.6065 17H14.1406L11.6744 12.4936C13.0646 12.0195 13.7145 10.8849 13.7145 9.43608C13.7145 7.50781 12.5639 6.09091 10.0071 6.09091H6.32102V17ZM7.64205 11.5455V7.26278H9.96449C11.733 7.26278 12.4148 8.12571 12.4148 9.43608C12.4148 10.7464 11.733 11.5455 9.9858 11.5455H7.64205ZM19.1757 17.1705C20.8376 17.1705 22.0521 16.3395 22.4356 15.1037L21.2211 14.7628C20.9015 15.6151 20.1611 16.0412 19.1757 16.0412C17.7002 16.0412 16.6828 15.0877 16.6242 13.3352H22.5635V12.8026C22.5635 9.75568 20.7524 8.71165 19.0479 8.71165C16.8319 8.71165 15.3618 10.4588 15.3618 12.973C15.3618 15.4872 16.8106 17.1705 19.1757 17.1705ZM16.6242 12.2486C16.7094 10.9755 17.6096 9.84091 19.0479 9.84091C20.4115 9.84091 21.2851 10.8636 21.2851 12.2486H16.6242ZM30.2712 10.6506C29.877 9.48935 28.9928 8.71165 27.3735 8.71165C25.6476 8.71165 24.3692 9.69176 24.3692 11.0767C24.3692 12.206 25.0404 12.9624 26.5425 13.3139L27.9062 13.6335C28.7318 13.8253 29.1207 14.2195 29.1207 14.7841C29.1207 15.4872 28.3749 16.0625 27.203 16.0625C26.175 16.0625 25.5305 15.6204 25.3067 14.7415L24.1135 15.0398C24.4065 16.43 25.5518 17.1705 27.2243 17.1705C29.126 17.1705 30.4204 16.1317 30.4204 14.7202C30.4204 13.5803 29.7066 12.8612 28.2471 12.5043L27.0326 12.206C26.0631 11.9663 25.6263 11.6413 25.6263 11.0128C25.6263 10.3097 26.3721 9.7983 27.3735 9.7983C28.4708 9.7983 28.9236 10.4055 29.142 10.9702L30.2712 10.6506ZM32.3127 17H33.5698V8.81818H32.3127V17ZM32.9519 7.45455C33.4419 7.45455 33.8468 7.07102 33.8468 6.60227C33.8468 6.13352 33.4419 5.75 32.9519 5.75C32.4618 5.75 32.057 6.13352 32.057 6.60227C32.057 7.07102 32.4618 7.45455 32.9519 7.45455ZM38.9617 17.1705C40.5384 17.1705 41.0711 16.1903 41.3481 15.7429H41.4972V17H42.7117V6.09091H41.4546V10.1179H41.3481C41.0711 9.69176 40.5811 8.71165 38.983 8.71165C36.9163 8.71165 35.4887 10.3523 35.4887 12.9304C35.4887 15.5298 36.9163 17.1705 38.9617 17.1705ZM39.1322 16.0412C37.5555 16.0412 36.7458 14.6562 36.7458 12.9091C36.7458 11.1832 37.5342 9.84091 39.1322 9.84091C40.6663 9.84091 41.4759 11.0767 41.4759 12.9091C41.4759 14.7628 40.645 16.0412 39.1322 16.0412ZM48.6191 17.1705C50.281 17.1705 51.4955 16.3395 51.879 15.1037L50.6645 14.7628C50.3449 15.6151 49.6045 16.0412 48.6191 16.0412C47.1436 16.0412 46.1262 15.0877 46.0676 13.3352H52.0068V12.8026C52.0068 9.75568 50.1958 8.71165 48.4912 8.71165C46.2753 8.71165 44.8051 10.4588 44.8051 12.973C44.8051 15.4872 46.254 17.1705 48.6191 17.1705ZM46.0676 12.2486C46.1528 10.9755 47.053 9.84091 48.4912 9.84091C49.8548 9.84091 50.7284 10.8636 50.7284 12.2486H46.0676ZM55.1762 12.0781C55.1762 10.6506 56.0605 9.84091 57.2643 9.84091C58.4308 9.84091 59.1393 10.6026 59.1393 11.8864V17H60.3964V11.8011C60.3964 9.71307 59.2831 8.71165 57.6265 8.71165C56.3907 8.71165 55.6237 9.26562 55.2401 10.0966H55.1336V8.81818H53.9191V17H55.1762V12.0781ZM66.0174 17.1705C67.8285 17.1705 69.0217 16.0625 69.2347 14.6136H67.9776C67.7433 15.5085 66.9975 16.0412 66.0174 16.0412C64.5259 16.0412 63.5671 14.8054 63.5671 12.9091C63.5671 11.0554 64.5472 9.84091 66.0174 9.84091C67.1254 9.84091 67.7859 10.5227 67.9776 11.2685H69.2347C69.0217 9.73438 67.7219 8.71165 65.9961 8.71165C63.7802 8.71165 62.31 10.4588 62.31 12.9517C62.31 15.402 63.7163 17.1705 66.0174 17.1705ZM74.5028 17.1705C76.1648 17.1705 77.3793 16.3395 77.7628 15.1037L76.5483 14.7628C76.2287 15.6151 75.4883 16.0412 74.5028 16.0412C73.0273 16.0412 72.0099 15.0877 71.9513 13.3352H77.8906V12.8026C77.8906 9.75568 76.0795 8.71165 74.375 8.71165C72.1591 8.71165 70.6889 10.4588 70.6889 12.973C70.6889 15.4872 72.1378 17.1705 74.5028 17.1705ZM71.9513 12.2486C72.0366 10.9755 72.9368 9.84091 74.375 9.84091C75.7386 9.84091 76.6122 10.8636 76.6122 12.2486H71.9513ZM80.7191 17.0852C81.2464 17.0852 81.6779 16.6538 81.6779 16.1264C81.6779 15.5991 81.2464 15.1676 80.7191 15.1676C80.1918 15.1676 79.7603 15.5991 79.7603 16.1264C79.7603 16.6538 80.1918 17.0852 80.7191 17.0852ZM80.7191 11.0128C81.2464 11.0128 81.6779 10.5813 81.6779 10.054C81.6779 9.52663 81.2464 9.09517 80.7191 9.09517C80.1918 9.09517 79.7603 9.52663 79.7603 10.054C79.7603 10.5813 80.1918 11.0128 80.7191 11.0128Z" fill="#2B2B2B"/>
<path d="M200.784 17H204.726C207.304 17 208.369 15.7429 208.369 14.1023C208.369 12.3764 207.176 11.4389 206.175 11.375V11.2685C207.112 11.0128 207.943 10.3949 207.943 8.98864C207.943 7.39062 206.878 6.09091 204.598 6.09091H200.784V17ZM202.105 15.8281V12.0355H204.79C206.217 12.0355 207.112 12.9943 207.112 14.1023C207.112 15.0611 206.452 15.8281 204.726 15.8281H202.105ZM202.105 10.8849V7.26278H204.598C206.047 7.26278 206.686 8.02983 206.686 8.98864C206.686 10.1392 205.748 10.8849 204.555 10.8849H202.105ZM213.906 17C217.23 17 219.105 14.9332 219.105 11.5241C219.105 8.13636 217.23 6.09091 214.055 6.09091H210.54V17H213.906ZM211.861 15.8281V7.26278H213.97C216.527 7.26278 217.827 8.8821 217.827 11.5241C217.827 14.1875 216.527 15.8281 213.821 15.8281H211.861Z" fill="#2B2B2B"/>
</svg>
