<svg width="86" height="20" viewBox="0 0 86 20" fill="none" xmlns="http://www.w3.org/2000/svg">
<path d="M7.76953 9.53516V9.93945C7.76953 10.5879 7.68164 11.1699 7.50586 11.6855C7.33008 12.2012 7.08203 12.6406 6.76172 13.0039C6.44141 13.3633 6.05859 13.6387 5.61328 13.8301C5.17188 14.0215 4.68164 14.1172 4.14258 14.1172C3.60742 14.1172 3.11719 14.0215 2.67188 13.8301C2.23047 13.6387 1.84766 13.3633 1.52344 13.0039C1.19922 12.6406 0.947266 12.2012 0.767578 11.6855C0.591797 11.1699 0.503906 10.5879 0.503906 9.93945V9.53516C0.503906 8.88281 0.591797 8.30078 0.767578 7.78906C0.943359 7.27344 1.19141 6.83398 1.51172 6.4707C1.83594 6.10742 2.21875 5.83008 2.66016 5.63867C3.10547 5.44727 3.5957 5.35156 4.13086 5.35156C4.66992 5.35156 5.16016 5.44727 5.60156 5.63867C6.04688 5.83008 6.42969 6.10742 6.75 6.4707C7.07422 6.83398 7.32422 7.27344 7.5 7.78906C7.67969 8.30078 7.76953 8.88281 7.76953 9.53516ZM5.99414 9.93945V9.52344C5.99414 9.07031 5.95312 8.67188 5.87109 8.32812C5.78906 7.98438 5.66797 7.69531 5.50781 7.46094C5.34766 7.22656 5.15234 7.05078 4.92188 6.93359C4.69141 6.8125 4.42773 6.75195 4.13086 6.75195C3.83398 6.75195 3.57031 6.8125 3.33984 6.93359C3.11328 7.05078 2.91992 7.22656 2.75977 7.46094C2.60352 7.69531 2.48438 7.98438 2.40234 8.32812C2.32031 8.67188 2.2793 9.07031 2.2793 9.52344V9.93945C2.2793 10.3887 2.32031 10.7871 2.40234 11.1348C2.48438 11.4785 2.60547 11.7695 2.76562 12.0078C2.92578 12.2422 3.12109 12.4199 3.35156 12.541C3.58203 12.6621 3.8457 12.7227 4.14258 12.7227C4.43945 12.7227 4.70312 12.6621 4.93359 12.541C5.16406 12.4199 5.35742 12.2422 5.51367 12.0078C5.66992 11.7695 5.78906 11.4785 5.87109 11.1348C5.95312 10.7871 5.99414 10.3887 5.99414 9.93945ZM9.03516 5.46875H12.2168C12.8691 5.46875 13.4297 5.56641 13.8984 5.76172C14.3711 5.95703 14.7344 6.24609 14.9883 6.62891C15.2422 7.01172 15.3691 7.48242 15.3691 8.04102C15.3691 8.49805 15.291 8.89062 15.1348 9.21875C14.9824 9.54297 14.7656 9.81445 14.4844 10.0332C14.207 10.248 13.8809 10.4199 13.5059 10.5488L12.9492 10.8418H10.1836L10.1719 9.4707H12.2285C12.5371 9.4707 12.793 9.41602 12.9961 9.30664C13.1992 9.19727 13.3516 9.04492 13.4531 8.84961C13.5586 8.6543 13.6113 8.42773 13.6113 8.16992C13.6113 7.89648 13.5605 7.66016 13.459 7.46094C13.3574 7.26172 13.2031 7.10938 12.9961 7.00391C12.7891 6.89844 12.5293 6.8457 12.2168 6.8457H10.793V14H9.03516V5.46875ZM13.8047 14L11.8594 10.1973L13.7168 10.1855L15.6855 13.918V14H13.8047ZM19.3418 14H17.4844L17.4961 12.6289H19.3418C19.8027 12.6289 20.1914 12.5254 20.5078 12.3184C20.8242 12.1074 21.0625 11.8008 21.2227 11.3984C21.3867 10.9961 21.4688 10.5098 21.4688 9.93945V9.52344C21.4688 9.08594 21.4219 8.70117 21.3281 8.36914C21.2383 8.03711 21.1035 7.75781 20.9238 7.53125C20.7441 7.30469 20.5234 7.13477 20.2617 7.02148C20 6.9043 19.6992 6.8457 19.3594 6.8457H17.4492V5.46875H19.3594C19.9297 5.46875 20.4512 5.56641 20.9238 5.76172C21.4004 5.95312 21.8125 6.22852 22.1602 6.58789C22.5078 6.94727 22.7754 7.37695 22.9629 7.87695C23.1543 8.37305 23.25 8.92578 23.25 9.53516V9.93945C23.25 10.5449 23.1543 11.0977 22.9629 11.5977C22.7754 12.0977 22.5078 12.5273 22.1602 12.8867C21.8164 13.2422 21.4043 13.5176 20.9238 13.7129C20.4473 13.9043 19.9199 14 19.3418 14ZM18.4805 5.46875V14H16.7227V5.46875H18.4805ZM30.252 12.6289V14H25.7109V12.6289H30.252ZM26.2852 5.46875V14H24.5273V5.46875H26.2852ZM29.6602 8.94336V10.2793H25.7109V8.94336H29.6602ZM30.2461 5.46875V6.8457H25.7109V5.46875H30.2461ZM31.2773 5.46875H34.459C35.1113 5.46875 35.6719 5.56641 36.1406 5.76172C36.6133 5.95703 36.9766 6.24609 37.2305 6.62891C37.4844 7.01172 37.6113 7.48242 37.6113 8.04102C37.6113 8.49805 37.5332 8.89062 37.377 9.21875C37.2246 9.54297 37.0078 9.81445 36.7266 10.0332C36.4492 10.248 36.123 10.4199 35.748 10.5488L35.1914 10.8418H32.4258L32.4141 9.4707H34.4707C34.7793 9.4707 35.0352 9.41602 35.2383 9.30664C35.4414 9.19727 35.5938 9.04492 35.6953 8.84961C35.8008 8.6543 35.8535 8.42773 35.8535 8.16992C35.8535 7.89648 35.8027 7.66016 35.7012 7.46094C35.5996 7.26172 35.4453 7.10938 35.2383 7.00391C35.0312 6.89844 34.7715 6.8457 34.459 6.8457H33.0352V14H31.2773V5.46875ZM36.0469 14L34.1016 10.1973L35.959 10.1855L37.9277 13.918V14H36.0469ZM48.8965 5.46875V14H47.1387L43.7109 8.28125V14H41.9531V5.46875H43.7109L47.1445 11.1934V5.46875H48.8965ZM57.4336 9.53516V9.93945C57.4336 10.5879 57.3457 11.1699 57.1699 11.6855C56.9941 12.2012 56.7461 12.6406 56.4258 13.0039C56.1055 13.3633 55.7227 13.6387 55.2773 13.8301C54.8359 14.0215 54.3457 14.1172 53.8066 14.1172C53.2715 14.1172 52.7812 14.0215 52.3359 13.8301C51.8945 13.6387 51.5117 13.3633 51.1875 13.0039C50.8633 12.6406 50.6113 12.2012 50.4316 11.6855C50.2559 11.1699 50.168 10.5879 50.168 9.93945V9.53516C50.168 8.88281 50.2559 8.30078 50.4316 7.78906C50.6074 7.27344 50.8555 6.83398 51.1758 6.4707C51.5 6.10742 51.8828 5.83008 52.3242 5.63867C52.7695 5.44727 53.2598 5.35156 53.7949 5.35156C54.334 5.35156 54.8242 5.44727 55.2656 5.63867C55.7109 5.83008 56.0938 6.10742 56.4141 6.4707C56.7383 6.83398 56.9883 7.27344 57.1641 7.78906C57.3438 8.30078 57.4336 8.88281 57.4336 9.53516ZM55.6582 9.93945V9.52344C55.6582 9.07031 55.6172 8.67188 55.5352 8.32812C55.4531 7.98438 55.332 7.69531 55.1719 7.46094C55.0117 7.22656 54.8164 7.05078 54.5859 6.93359C54.3555 6.8125 54.0918 6.75195 53.7949 6.75195C53.498 6.75195 53.2344 6.8125 53.0039 6.93359C52.7773 7.05078 52.584 7.22656 52.4238 7.46094C52.2676 7.69531 52.1484 7.98438 52.0664 8.32812C51.9844 8.67188 51.9434 9.07031 51.9434 9.52344V9.93945C51.9434 10.3887 51.9844 10.7871 52.0664 11.1348C52.1484 11.4785 52.2695 11.7695 52.4297 12.0078C52.5898 12.2422 52.7852 12.4199 53.0156 12.541C53.2461 12.6621 53.5098 12.7227 53.8066 12.7227C54.1035 12.7227 54.3672 12.6621 54.5977 12.541C54.8281 12.4199 55.0215 12.2422 55.1777 12.0078C55.334 11.7695 55.4531 11.4785 55.5352 11.1348C55.6172 10.7871 55.6582 10.3887 55.6582 9.93945ZM60.7559 12.6465L62.4551 5.46875H63.4043L63.6211 6.66406L61.8105 14H60.791L60.7559 12.6465ZM59.8828 5.46875L61.2891 12.6465L61.1719 14H60.0352L58.1426 5.46875H59.8828ZM65.1152 12.6172L66.5039 5.46875H68.2441L66.3574 14H65.2207L65.1152 12.6172ZM63.9375 5.46875L65.6484 12.6758L65.6016 14H64.582L62.7598 6.6582L62.9941 5.46875H63.9375Z" fill="#FFB400"/>
<g clip-path="url(#clip0_2_647)">
<path d="M76.1431 10.0002L73.7856 7.64352L74.964 6.46436L78.4998 10.0002L74.964 13.536L73.7856 12.3569L76.1431 10.0002Z" fill="#FFB400"/>
</g>
<defs>
<clipPath id="clip0_2_647">
<rect width="20" height="20" fill="white" transform="translate(66)"/>
</clipPath>
</defs>
</svg>
