<svg width="155" height="52" viewBox="0 0 155 52" fill="none" xmlns="http://www.w3.org/2000/svg">
<rect x="0.0742188" y="0.394531" width="154" height="51" rx="5" fill="#FFB400"/>
<path d="M33.6651 31.3945H35.4208V26.3207H41.2219V31.3945H42.9833V19.7582H41.2219V24.815H35.4208V19.7582H33.6651V31.3945ZM47.2958 19.7582H45.5401V31.3945H47.2958V19.7582ZM49.8526 31.3945H51.6083V26.9911H53.9947C54.0344 26.9911 54.0685 26.9911 54.1083 26.9911L56.4719 31.3945H58.4719L55.8924 26.6843C57.3185 26.1559 58.0288 24.9684 58.0288 23.4059C58.0288 21.2638 56.6992 19.7582 54.0004 19.7582H49.8526V31.3945ZM51.6083 25.4798V21.2638H53.8129C55.5458 21.2638 56.2617 22.0877 56.2617 23.4059C56.2617 24.7184 55.5458 25.4798 53.8356 25.4798H51.6083ZM60.1651 31.3945H67.5288V29.8832H61.9208V26.3207H67.0799V24.815H61.9208V21.2695H67.4606V19.7582H60.1651V31.3945ZM74.0401 19.7582V31.3945H75.7106V22.9684H75.8185L79.2504 31.3775H80.6367L84.0685 22.9741H84.1765V31.3945H85.8469V19.7582H83.7163L80.0117 28.8036H79.8754L76.1708 19.7582H74.0401ZM88.3995 31.3945H95.7631V29.8832H90.1552V26.3207H95.3143V24.815H90.1552V21.2695H95.695V19.7582H88.3995V31.3945Z" fill="#2B2B2B"/>
<g clip-path="url(#clip0_2_1442)">
<path d="M116.855 24.7277L113.279 21.1517L114.222 20.209L119.407 25.3943L114.222 30.5797L113.279 29.637L116.855 26.061H108.741V24.7277H116.855Z" fill="#2B2B2B"/>
</g>
<defs>
<clipPath id="clip0_2_1442">
<rect width="16" height="16" fill="white" transform="translate(106.074 17.3945)"/>
</clipPath>
</defs>
</svg>
